<svg width="1060" height="1" viewBox="0 0 1060 1" fill="none" xmlns="http://www.w3.org/2000/svg">
<path d="M1060 -0.5H1058.01V0.5H1060V-0.5ZM1054.02 -0.5H1050.04V0.5H1054.02V-0.5ZM1046.05 -0.5H1042.07V0.5H1046.05V-0.5ZM1038.08 -0.5H1034.1V0.5H1038.08V-0.5ZM1030.11 -0.5H1026.13V0.5H1030.11V-0.5ZM1022.14 -0.5H1018.16V0.5H1022.14V-0.5ZM1014.17 -0.5H1010.19V0.5H1014.17V-0.5ZM1006.2 -0.5H1002.22V0.5H1006.2V-0.5ZM998.233 -0.5H994.248V0.5H998.233V-0.5ZM990.263 -0.5H986.278V0.5H990.263V-0.5ZM982.293 -0.5H978.308V0.5H982.293V-0.5ZM974.323 -0.5H970.338V0.5H974.323V-0.5ZM966.353 -0.5H962.368V0.5H966.353V-0.5ZM958.383 -0.5H954.398V0.5H958.383V-0.5ZM950.414 -0.5H946.429V0.5H950.414V-0.5ZM942.444 -0.5H938.459V0.5H942.444V-0.5ZM934.474 -0.5H930.489V0.5H934.474V-0.5ZM926.504 -0.5H922.519V0.5H926.504V-0.5ZM918.534 -0.5H914.549V0.5H918.534V-0.5ZM910.564 -0.5H906.579V0.5H910.564V-0.5ZM902.594 -0.5H898.609V0.5H902.594V-0.5ZM894.624 -0.5H890.639V0.5H894.624V-0.5ZM886.654 -0.5H882.669V0.5H886.654V-0.5ZM878.684 -0.5H874.699V0.5H878.684V-0.5ZM870.714 -0.5H866.729V0.5H870.714V-0.5ZM862.744 -0.5H858.76V0.5H862.744V-0.5ZM854.775 -0.5H850.79V0.5H854.775V-0.5ZM846.805 -0.5H842.82V0.5H846.805V-0.5ZM838.835 -0.5H834.85V0.5H838.835V-0.5ZM830.865 -0.5H826.88V0.5H830.865V-0.5ZM822.895 -0.5H818.91V0.5H822.895V-0.5ZM814.925 -0.5H810.94V0.5H814.925V-0.5ZM806.955 -0.5H802.97V0.5H806.955V-0.5ZM798.985 -0.5H795V0.5H798.985V-0.5ZM791.015 -0.5H787.03V0.5H791.015V-0.5ZM783.045 -0.5H779.06V0.5H783.045V-0.5ZM775.075 -0.5H771.091V0.5H775.075V-0.5ZM767.106 -0.5H763.121V0.5H767.106V-0.5ZM759.136 -0.5H755.151V0.5H759.136V-0.5ZM751.166 -0.5H747.181V0.5H751.166V-0.5ZM743.196 -0.5H739.211V0.5H743.196V-0.5ZM735.226 -0.5H731.241V0.5H735.226V-0.5ZM727.256 -0.5H723.271V0.5H727.256V-0.5ZM719.286 -0.5H715.301V0.5H719.286V-0.5ZM711.316 -0.5H707.331V0.5H711.316V-0.5ZM703.346 -0.5H699.361V0.5H703.346V-0.5ZM695.376 -0.5H691.391V0.5H695.376V-0.5ZM687.406 -0.5H683.422V0.5H687.406V-0.5ZM679.437 -0.5H675.452V0.5H679.437V-0.5ZM671.467 -0.5H667.482V0.5H671.467V-0.5ZM663.497 -0.5H659.512V0.5H663.497V-0.5ZM655.527 -0.5H651.542V0.5H655.527V-0.5ZM647.557 -0.5H643.572V0.5H647.557V-0.5ZM639.587 -0.5H635.602V0.5H639.587V-0.5ZM631.617 -0.5H627.632V0.5H631.617V-0.5ZM623.647 -0.5H619.662V0.5H623.647V-0.5ZM615.677 -0.5H611.692V0.5H615.677V-0.5ZM607.707 -0.5H603.722V0.5H607.707V-0.5ZM599.737 -0.5H595.753V0.5H599.737V-0.5ZM591.768 -0.5H587.783V0.5H591.768V-0.5ZM583.798 -0.5H579.813V0.5H583.798V-0.5ZM575.828 -0.5H571.843V0.5H575.828V-0.5ZM567.858 -0.5H563.873V0.5H567.858V-0.5ZM559.888 -0.5H555.903V0.5H559.888V-0.5ZM551.918 -0.5H547.933V0.5H551.918V-0.5ZM543.948 -0.5H539.963V0.5H543.948V-0.5ZM535.978 -0.5H531.993V0.5H535.978V-0.5ZM528.008 -0.5H524.023V0.5H528.008V-0.5ZM520.038 -0.5H516.053V0.5H520.038V-0.5ZM512.068 -0.5H508.083V0.5H512.068V-0.5ZM504.098 -0.5H500.113V0.5H504.098V-0.5ZM496.128 -0.5H492.143V0.5H496.128V-0.5ZM488.158 -0.5H484.173V0.5H488.158V-0.5ZM480.188 -0.5H476.203V0.5H480.188V-0.5ZM472.218 -0.5H468.233V0.5H472.218V-0.5ZM464.248 -0.5H460.263V0.5H464.248V-0.5ZM456.278 -0.5H452.293V0.5H456.278V-0.5ZM448.308 -0.5H444.323V0.5H448.308V-0.5ZM440.338 -0.5H436.353V0.5H440.338V-0.5ZM432.368 -0.5H428.383V0.5H432.368V-0.5ZM424.399 -0.5H420.414V0.5H424.399V-0.5ZM416.428 -0.5H412.444V0.5H416.428V-0.5ZM408.459 -0.5H404.474V0.5H408.459V-0.5ZM400.489 -0.5H396.504V0.5H400.489V-0.5ZM392.519 -0.5H388.534V0.5H392.519V-0.5ZM384.549 -0.5H380.564V0.5H384.549V-0.5ZM376.579 -0.5H372.594V0.5H376.579V-0.5ZM368.609 -0.5H364.624V0.5H368.609V-0.5ZM360.639 -0.5H356.654V0.5H360.639V-0.5ZM352.669 -0.5H348.684V0.5H352.669V-0.5ZM344.699 -0.5H340.714V0.5H344.699V-0.5ZM336.729 -0.5H332.744V0.5H336.729V-0.5ZM328.759 -0.5H324.774V0.5H328.759V-0.5ZM320.789 -0.5H316.804V0.5H320.789V-0.5ZM312.819 -0.5H308.834V0.5H312.819V-0.5ZM304.849 -0.5H300.864V0.5H304.849V-0.5ZM296.879 -0.5H292.894V0.5H296.879V-0.5ZM288.909 -0.5H284.924V0.5H288.909V-0.5ZM280.939 -0.5H276.954V0.5H280.939V-0.5ZM272.969 -0.5H268.984V0.5H272.969V-0.5ZM264.999 -0.5H261.014V0.5H264.999V-0.5ZM257.029 -0.5H253.044V0.5H257.029V-0.5ZM249.059 -0.5H245.074V0.5H249.059V-0.5ZM241.089 -0.5H237.104V0.5H241.089V-0.5ZM233.119 -0.5H229.134V0.5H233.119V-0.5ZM225.149 -0.5H221.164V0.5H225.149V-0.5ZM217.179 -0.5H213.194V0.5H217.179V-0.5ZM209.209 -0.5H205.224V0.5H209.209V-0.5ZM201.239 -0.5H197.254V0.5H201.239V-0.5ZM193.269 -0.5H189.284V0.5H193.269V-0.5ZM185.299 -0.5H181.314V0.5H185.299V-0.5ZM177.329 -0.5H173.344V0.5H177.329V-0.5ZM169.359 -0.5H165.374V0.5H169.359V-0.5ZM161.389 -0.5H157.404V0.5H161.389V-0.5ZM153.42 -0.5H149.435V0.5H153.42V-0.5ZM145.449 -0.5H141.465V0.5H145.449V-0.5ZM137.48 -0.5H133.495V0.5H137.48V-0.5ZM129.51 -0.5H125.525V0.5H129.51V-0.5ZM121.54 -0.5H117.555V0.5H121.54V-0.5ZM113.57 -0.5H109.585V0.5H113.57V-0.5ZM105.6 -0.5H101.615V0.5H105.6V-0.5ZM97.6297 -0.5H93.6447V0.5H97.6297V-0.5ZM89.6597 -0.5H85.6747V0.5H89.6597V-0.5ZM81.6898 -0.5H77.7048V0.5H81.6898V-0.5ZM73.7198 -0.5H69.7348V0.5H73.7198V-0.5ZM65.7498 -0.5H61.7648V0.5H65.7498V-0.5ZM57.7798 -0.5H53.7949V0.5H57.7798V-0.5ZM49.8099 -0.5H45.8249V0.5H49.8099V-0.5ZM41.8399 -0.5H37.8549V0.5H41.8399V-0.5ZM33.87 -0.5H29.885V0.5H33.87V-0.5ZM25.9 -0.5H21.9151V0.5H25.9V-0.5ZM17.9301 -0.5H13.945V0.5H17.9301V-0.5ZM9.96009 -0.5H5.97508V0.5H9.96009V-0.5ZM1.99014 -0.5H0V0.5H1.99014V-0.5ZM1060 -1H1058.01V1H1060V-1ZM1054.02 -1H1050.04V1H1054.02V-1ZM1046.05 -1H1042.07V1H1046.05V-1ZM1038.08 -1H1034.1V1H1038.08V-1ZM1030.11 -1H1026.13V1H1030.11V-1ZM1022.14 -1H1018.16V1H1022.14V-1ZM1014.17 -1H1010.19V1H1014.17V-1ZM1006.2 -1H1002.22V1H1006.2V-1ZM998.233 -1H994.248V1H998.233V-1ZM990.263 -1H986.278V1H990.263V-1ZM982.293 -1H978.308V1H982.293V-1ZM974.323 -1H970.338V1H974.323V-1ZM966.353 -1H962.368V1H966.353V-1ZM958.383 -1H954.398V1H958.383V-1ZM950.414 -1H946.429V1H950.414V-1ZM942.444 -1H938.459V1H942.444V-1ZM934.474 -1H930.489V1H934.474V-1ZM926.504 -1H922.519V1H926.504V-1ZM918.534 -1H914.549V1H918.534V-1ZM910.564 -1H906.579V1H910.564V-1ZM902.594 -1H898.609V1H902.594V-1ZM894.624 -1H890.639V1H894.624V-1ZM886.654 -1H882.669V1H886.654V-1ZM878.684 -1H874.699V1H878.684V-1ZM870.714 -1H866.729V1H870.714V-1ZM862.744 -1H858.76V1H862.744V-1ZM854.775 -1H850.79V1H854.775V-1ZM846.805 -1H842.82V1H846.805V-1ZM838.835 -1H834.85V1H838.835V-1ZM830.865 -1H826.88V1H830.865V-1ZM822.895 -1H818.91V1H822.895V-1ZM814.925 -1H810.94V1H814.925V-1ZM806.955 -1H802.97V1H806.955V-1ZM798.985 -1H795V1H798.985V-1ZM791.015 -1H787.03V1H791.015V-1ZM783.045 -1H779.06V1H783.045V-1ZM775.075 -1H771.091V1H775.075V-1ZM767.106 -1H763.121V1H767.106V-1ZM759.136 -1H755.151V1H759.136V-1ZM751.166 -1H747.181V1H751.166V-1ZM743.196 -1H739.211V1H743.196V-1ZM735.226 -1H731.241V1H735.226V-1ZM727.256 -1H723.271V1H727.256V-1ZM719.286 -1H715.301V1H719.286V-1ZM711.316 -1H707.331V1H711.316V-1ZM703.346 -1H699.361V1H703.346V-1ZM695.376 -1H691.391V1H695.376V-1ZM687.406 -1H683.422V1H687.406V-1ZM679.437 -1H675.452V1H679.437V-1ZM671.467 -1H667.482V1H671.467V-1ZM663.497 -1H659.512V1H663.497V-1ZM655.527 -1H651.542V1H655.527V-1ZM647.557 -1H643.572V1H647.557V-1ZM639.587 -1H635.602V1H639.587V-1ZM631.617 -1H627.632V1H631.617V-1ZM623.647 -1H619.662V1H623.647V-1ZM615.677 -1H611.692V1H615.677V-1ZM607.707 -1H603.722V1H607.707V-1ZM599.737 -1H595.753V1H599.737V-1ZM591.768 -1H587.783V1H591.768V-1ZM583.798 -1H579.813V1H583.798V-1ZM575.828 -1H571.843V1H575.828V-1ZM567.858 -1H563.873V1H567.858V-1ZM559.888 -1H555.903V1H559.888V-1ZM551.918 -1H547.933V1H551.918V-1ZM543.948 -1H539.963V1H543.948V-1ZM535.978 -1H531.993V1H535.978V-1ZM528.008 -1H524.023V1H528.008V-1ZM520.038 -1H516.053V1H520.038V-1ZM512.068 -1H508.083V1H512.068V-1ZM504.098 -1H500.113V1H504.098V-1ZM496.128 -1H492.143V1H496.128V-1ZM488.158 -1H484.173V1H488.158V-1ZM480.188 -1H476.203V1H480.188V-1ZM472.218 -1H468.233V1H472.218V-1ZM464.248 -1H460.263V1H464.248V-1ZM456.278 -1H452.293V1H456.278V-1ZM448.308 -1H444.323V1H448.308V-1ZM440.338 -1H436.353V1H440.338V-1ZM432.368 -1H428.383V1H432.368V-1ZM424.399 -1H420.414V1H424.399V-1ZM416.428 -1H412.444V1H416.428V-1ZM408.459 -1H404.474V1H408.459V-1ZM400.489 -1H396.504V1H400.489V-1ZM392.519 -1H388.534V1H392.519V-1ZM384.549 -1H380.564V1H384.549V-1ZM376.579 -1H372.594V1H376.579V-1ZM368.609 -1H364.624V1H368.609V-1ZM360.639 -1H356.654V1H360.639V-1ZM352.669 -1H348.684V1H352.669V-1ZM344.699 -1H340.714V1H344.699V-1ZM336.729 -1H332.744V1H336.729V-1ZM328.759 -1H324.774V1H328.759V-1ZM320.789 -1H316.804V1H320.789V-1ZM312.819 -1H308.834V1H312.819V-1ZM304.849 -1H300.864V1H304.849V-1ZM296.879 -1H292.894V1H296.879V-1ZM288.909 -1H284.924V1H288.909V-1ZM280.939 -1H276.954V1H280.939V-1ZM272.969 -1H268.984V1H272.969V-1ZM264.999 -1H261.014V1H264.999V-1ZM257.029 -1H253.044V1H257.029V-1ZM249.059 -1H245.074V1H249.059V-1ZM241.089 -1H237.104V1H241.089V-1ZM233.119 -1H229.134V1H233.119V-1ZM225.149 -1H221.164V1H225.149V-1ZM217.179 -1H213.194V1H217.179V-1ZM209.209 -1H205.224V1H209.209V-1ZM201.239 -1H197.254V1H201.239V-1ZM193.269 -1H189.284V1H193.269V-1ZM185.299 -1H181.314V1H185.299V-1ZM177.329 -1H173.344V1H177.329V-1ZM169.359 -1H165.374V1H169.359V-1ZM161.389 -1H157.404V1H161.389V-1ZM153.42 -1H149.435V1H153.42V-1ZM145.449 -1H141.465V1H145.449V-1ZM137.48 -1H133.495V1H137.48V-1ZM129.51 -1H125.525V1H129.51V-1ZM121.54 -1H117.555V1H121.54V-1ZM113.57 -1H109.585V1H113.57V-1ZM105.6 -1H101.615V1H105.6V-1ZM97.6297 -1H93.6447V1H97.6297V-1ZM89.6597 -1H85.6747V1H89.6597V-1ZM81.6898 -1H77.7048V1H81.6898V-1ZM73.7198 -1H69.7348V1H73.7198V-1ZM65.7498 -1H61.7648V1H65.7498V-1ZM57.7798 -1H53.7949V1H57.7798V-1ZM49.8099 -1H45.8249V1H49.8099V-1ZM41.8399 -1H37.8549V1H41.8399V-1ZM33.87 -1H29.885V1H33.87V-1ZM25.9 -1H21.9151V1H25.9V-1ZM17.9301 -1H13.945V1H17.9301V-1ZM9.96009 -1H5.97508V1H9.96009V-1ZM1.99014 -1H0V1H1.99014V-1Z" fill="url(#paint0_linear_1770_898)" mask="url(#path-1-inside-1_1770_898)"/>
<defs>
<linearGradient id="paint0_linear_1770_898" x1="0" y1="1.01328" x2="1060" y2="1.01328" gradientUnits="userSpaceOnUse">
<stop offset="0.420044" stop-color="#272A34"/>
<stop offset="1" stop-color="#464646" stop-opacity="0"/>
<stop offset="1" stop-color="#272A34" stop-opacity="0"/>
</linearGradient>
</defs>
</svg>
